<svg xmlns="http://www.w3.org/2000/svg" width="150" height="52" viewBox="0 0 150 52">
    <g fill="none" fill-rule="nonzero">
        <path fill="#57A6B8" d="M100.071 13.457L94.5 19.03a12.814 12.814 0 0 1 1.886 6.728 12.84 12.84 0 0 1-12.857 12.857c-2.443 0-4.758-.685-6.729-1.885L71.229 42.3c3.428 2.529 7.671 4.071 12.257 4.071 11.357 0 20.571-9.214 20.571-20.571a19.805 19.805 0 0 0-3.986-12.343zM70.714 25.714a12.84 12.84 0 0 1 12.857-12.857c2.443 0 4.758.686 6.729 1.886l5.571-5.572C92.443 6.643 88.2 5.1 83.614 5.1c-11.357 0-20.571 9.214-20.571 20.571 0 4.586 1.5 8.829 4.071 12.258l5.572-5.572c-1.286-1.886-1.972-4.2-1.972-6.643z"/>
        <path fill="#4A4A4A" d="M8.786 45.429H1.5c-.129 0-.214-.086-.214-.215V13.93c0-.129.085-.215.214-.215h7.286c.128 0 .214.086.214.215v31.285c0 .129-.086.215-.214.215zM131.271 6c-10.114.171-18.128 8.614-18.128 18.729v20.485c0 .129.086.215.214.215h7.286c.128 0 .214-.086.214-.215V24.686c0-6 4.929-11.057 10.929-10.972 5.828.129 10.5 4.843 10.5 10.715v20.785c0 .129.085.215.214.215h7.286c.128 0 .214-.086.214-.215V24.43c0-10.286-8.443-18.6-18.729-18.429z"/>
        <circle cx="5.143" cy="5.143" r="5.143" fill="#4A4A4A"/>
        <circle cx="104.143" cy="5.143" r="5.143" fill="#57A6B8"/>
        <circle cx="63" cy="46.286" r="5.143" fill="#57A6B8"/>
        <path fill="#4A4A4A" d="M38.829 13.714h12.385c.129 0 .215-.085.215-.214V6.214c0-.128-.086-.214-.215-.214h-12.3c-10.8 0-19.843 8.571-20.057 19.371-.171 11.058 8.7 20.058 19.714 20.058h12.643c.129 0 .215-.086.215-.215V37.93c0-.129-.086-.215-.215-.215H38.571c-6.728 0-12.171-5.571-12-12.343.172-6.514 5.7-11.657 12.258-11.657z"/>
    </g>
</svg>
